# xmcd
#
# Track frame offsets: 
#        150
#        14423
#        26943
#        47266
#        67511
#        81010
#        97105
#        112318
#        125297
#        138623
#        153413
#        170384
#        187170
#        199767
#        218664
#
# Disc length: 3075 seconds
#
# Revision: 0
# Processed by: cddbd v1.5.2PL0 Copyright (c) Steve Scherf et al.
# Submitted via: ExactAudioCopy v1.3
#
DISCID=cf0c010f
DTITLE=The Long Gone Smiles Band - The Most Important Part - Inspired 
DTITLE=By The Past
DYEAR=2009
DGENRE=Bluegrass
TTITLE0=One Hit Country Singer
TTITLE1=Brown Eyes Blue Eyes
TTITLE2=Technology Set Me Free
TTITLE3=Mr. Bartender
TTITLE4=Howlin' Rag
TTITLE5=Looking Through The Glasses
TTITLE6=Heaven On Earth
TTITLE7=The Mistery Of Number Five
TTITLE8=You Gotta Keep Your Woman Sober
TTITLE9=Remote Mountain Memories
TTITLE10=Christmas In The Mountains
TTITLE11=The Most Important Part
TTITLE12=Meet Me In Heaven
TTITLE13=The Steel Guitar Of Don
TTITLE14=Down In The Valley
EXTD=
EXTT0=
EXTT1=
EXTT2=
EXTT3=
EXTT4=
EXTT5=
EXTT6=
EXTT7=
EXTT8=
EXTT9=
EXTT10=
EXTT11=
EXTT12=
EXTT13=
EXTT14=
PLAYORDER=
